HIERARCHY
ROOT pelvis
{
    OFFSET 0.0 92.30645751953125 0.0
    CHANNELS 6 Xposition Yposition Zposition Zrotation Yrotation Xrotation

    JOINT left_hip
    {
        OFFSET -6.248989105224609 -4.701225280761719 -0.8717994093894958
        CHANNELS 3 Zrotation Yrotation Xrotation

        JOINT left_knee
        {
            OFFSET -2.6135339736938477 -40.951927185058594 -0.935908854007721
            CHANNELS 3 Zrotation Yrotation Xrotation

            JOINT left_ankle
            {
                OFFSET 5.2308502197265625 -42.30502700805664 -2.8248653411865234
                CHANNELS 3 Zrotation Yrotation Xrotation

                JOINT left_foot
                {
                    OFFSET -8.184823036193848 -3.588310718536377 11.075987815856934
                    CHANNELS 3 Zrotation Yrotation Xrotation

                    End Site
                    {
                        OFFSET 0 0 0
                    }
                }
            }
        }
    }

    JOINT right_hip
    {
        OFFSET 7.1852521896362305 -4.6518402099609375 0.7767808437347412
        CHANNELS 3 Zrotation Yrotation Xrotation

        JOINT right_knee
        {
            OFFSET 4.842928886413574 -41.17830276489258 -1.5368828773498535
            CHANNELS 3 Zrotation Yrotation Xrotation

            JOINT right_ankle
            {
                OFFSET -1.5648021697998047 -41.35963439941406 -2.1364669799804688
                CHANNELS 3 Zrotation Yrotation Xrotation

                JOINT right_foot
                {
                    OFFSET -0.054290771484375 -3.4659552574157715 14.447348594665527
                    CHANNELS 3 Zrotation Yrotation Xrotation

                    End Site
                    {
                        OFFSET 0 0 0
                    }
                }
            }
        }
    }

    JOINT spine1
    {
        OFFSET 0.49116063117980957 17.12860870361328 -3.4784305095672607
        CHANNELS 3 Zrotation Yrotation Xrotation

        JOINT spine2
        {
            OFFSET -1.1572625637054443 12.263778686523438 2.4951388835906982
            CHANNELS 3 Zrotation Yrotation Xrotation

            JOINT spine3
            {
                OFFSET -0.3846161365509033 3.2077560424804688 3.636476516723633
                CHANNELS 3 Zrotation Yrotation Xrotation

                JOINT left_collar
                {
                    OFFSET -7.084173202514648 9.608245849609375 -2.91937518119812
                    CHANNELS 3 Zrotation Yrotation Xrotation

                    JOINT left_shoulder
                    {
                        OFFSET -12.792165756225586 -1.131744384765625 -4.082871913909912
                        CHANNELS 3 Zrotation Yrotation Xrotation

                        JOINT left_elbow
                        {
                            OFFSET -2.667285919189453 -22.77680206298828 -2.8660287857055664
                            CHANNELS 3 Zrotation Yrotation Xrotation

                            JOINT left_wrist
                            {
                                OFFSET -10.212587356567383 -24.45562744140625 8.054533004760742
                                CHANNELS 3 Zrotation Yrotation Xrotation

                                End Site
                                {
                                    OFFSET 0 0 0
                                }
                            }
                        }
                    }
                }

                JOINT right_collar
                {
                    OFFSET 7.452022552490234 9.883255004882812 -2.704968214035034
                    CHANNELS 3 Zrotation Yrotation Xrotation

                    JOINT right_shoulder
                    {
                        OFFSET 12.089519500732422 -0.593048095703125 -2.125288248062134
                        CHANNELS 3 Zrotation Yrotation Xrotation

                        JOINT right_elbow
                        {
                            OFFSET 4.625143051147461 -22.997474670410156 -1.8497662544250488
                            CHANNELS 3 Zrotation Yrotation Xrotation

                            JOINT right_wrist
                            {
                                OFFSET 8.756696701049805 -24.550880432128906 10.317989349365234
                                CHANNELS 3 Zrotation Yrotation Xrotation

                                End Site
                                {
                                    OFFSET 0 0 0
                                }
                            }
                        }
                    }
                }

                JOINT neck
                {
                    OFFSET 0.04522228240966797 21.066513061523438 -3.3658430576324463
                    CHANNELS 3 Zrotation Yrotation Xrotation

                    JOINT head
                    {
                        OFFSET -1.1817986965179443 10.548736572265625 7.637044906616211
                        CHANNELS 3 Zrotation Yrotation Xrotation

                        End Site
                        {
                            OFFSET 0 0 0
                        }
                    }
                }
            }
        }
    }

}

MOTION
Frames: 7
Frame Time: 0.050000
0.000000 92.306458 0.000000 0.000000 0.000000 0.000000 0.000000 0.000000 0.000000 0.000000 0.000000 0.000000 0.000000 0.000000 0.000000 0.000000 0.000000 0.000000 0.000000 0.000000 0.000000 0.000000 0.000000 0.000000 0.000000 0.000000 0.000000 0.000000 0.000000 0.000000 0.000000 0.000000 0.000000 0.000000 0.000000 0.000000 0.000000 0.000000 0.000000 0.000000 0.000000 0.000000 0.000000 0.000000 0.000000 0.000000 0.000000 0.000000 0.000000 0.000000 0.000000 0.000000 0.000000 0.000000 0.000000 0.000000 0.000000 0.000000 0.000000 0.000000 0.000000 0.000000 0.000000 0.000000 0.000000 0.000000 0.000000 0.000000 0.000000
0.186832 92.308243 -0.105811 0.000000 0.000000 -0.000000 0.033537 0.027031 -0.114205 0.167115 0.125486 0.254811 -0.371854 -0.378539 0.112907 0.000000 0.000000 -0.000000 0.023479 0.033659 -0.077936 0.100745 0.118881 0.024647 0.094728 0.137923 0.045657 0.000000 0.000000 -0.000000 -0.084619 0.079650 -0.105980 -0.510804 0.206562 0.194120 0.000000 0.000000 -0.000000 0.099016 -0.054258 -0.140742 0.138957 0.031603 0.202825 0.187458 0.038213 -0.307686 0.000000 0.000000 -0.000000 -0.119250 0.010964 -0.142719 -0.027253 0.058685 0.124666 -0.076685 -0.088795 0.039310 0.000000 0.000000 -0.000000 -0.300108 0.151532 0.028312 0.000000 0.000000 -0.000000
0.397117 92.320213 -0.200976 0.000000 0.000000 -0.000000 0.067406 0.044963 -0.372477 0.308538 0.175842 0.676331 -0.666963 -0.591674 0.301660 0.000000 0.000000 -0.000000 0.093221 0.123654 -0.227018 0.162033 0.209570 0.130712 -0.529531 0.206617 0.065076 0.000000 0.000000 -0.000000 -0.061739 0.061223 -0.110221 -0.294369 0.105130 0.263785 0.000000 0.000000 -0.000000 0.156063 0.130565 -0.202496 0.004914 0.010730 0.247388 0.131040 0.011027 -0.307137 0.000000 0.000000 -0.000000 -0.111986 0.168254 -0.141853 -0.101808 0.107988 0.213453 -0.301320 -0.206251 0.024825 0.000000 0.000000 -0.000000 -0.363123 0.174859 0.107346 0.000000 0.000000 -0.000000
0.643676 92.340622 -0.284184 0.000000 0.000000 -0.000000 0.113744 0.072975 -0.666512 0.440603 0.200349 1.164942 -0.713232 -0.862739 0.403293 0.000000 0.000000 -0.000000 0.182283 0.225449 -0.307319 0.214138 0.277835 0.192292 -0.223623 0.383916 -0.001550 0.000000 0.000000 -0.000000 -0.032106 0.032445 -0.064010 -0.120179 0.020109 0.318541 0.000000 0.000000 -0.000000 0.172158 0.286070 -0.210673 -0.151465 -0.026826 0.273101 0.082590 -0.013410 -0.246319 0.000000 0.000000 -0.000000 -0.065812 0.285424 -0.092578 -0.054766 0.221597 0.284855 -0.544801 -0.318339 0.068376 0.000000 0.000000 -0.000000 -0.432002 0.201116 0.186232 0.000000 0.000000 -0.000000
0.941029 92.355751 -0.355402 0.000000 0.000000 -0.000000 0.198851 0.136402 -1.010301 0.596929 0.226298 1.753677 -0.842672 -1.225814 0.547713 0.000000 0.000000 -0.000000 0.282655 0.336488 -0.367950 0.320566 0.401152 0.287095 0.285532 0.642633 -0.197687 0.000000 0.000000 -0.000000 -0.011257 0.007219 0.021448 -0.018081 -0.027108 0.329690 0.000000 0.000000 -0.000000 0.159840 0.441033 -0.180017 -0.317482 -0.046149 0.320961 0.066304 -0.042242 -0.202777 0.000000 0.000000 -0.000000 0.014612 0.350345 0.000191 0.072571 0.340452 0.367830 -0.764539 -0.398409 0.133434 0.000000 0.000000 -0.000000 -0.416140 0.179129 0.305058 0.000000 0.000000 -0.000000
1.304647 92.366234 -0.412029 0.000000 0.000000 -0.000000 0.338395 0.253912 -1.347493 0.776847 0.263853 2.422356 -1.004697 -1.695362 0.745113 0.000000 0.000000 -0.000000 0.409562 0.477621 -0.454675 0.508908 0.616381 0.445750 1.403657 1.074330 -0.514117 0.000000 0.000000 -0.000000 0.078253 -0.074244 0.107067 0.090703 -0.106919 0.340666 0.000000 0.000000 -0.000000 0.154467 0.697587 -0.149971 -0.551862 -0.048534 0.389473 0.013520 -0.100330 -0.162728 0.000000 0.000000 -0.000000 0.109777 0.440684 0.109355 0.221403 0.492539 0.467359 -0.985585 -0.477300 0.249797 0.000000 0.000000 -0.000000 -0.475249 0.189895 0.472170 0.000000 0.000000 -0.000000
1.762900 92.362320 -0.450678 0.000000 0.000000 -0.000000 0.521534 0.416708 -1.637438 0.944916 0.290521 3.097473 -1.081497 -2.290831 0.907640 0.000000 0.000000 -0.000000 0.524355 0.617538 -0.651477 0.799357 0.966302 0.872052 3.472520 1.709847 -1.088323 0.000000 0.000000 -0.000000 0.213987 -0.190135 0.158045 0.157008 -0.193848 0.368586 0.000000 0.000000 -0.000000 0.137121 1.004574 -0.099328 -0.806848 -0.016367 0.437126 -0.055509 -0.176313 -0.153002 0.000000 0.000000 -0.000000 0.246782 0.520758 0.269060 0.405246 0.650334 0.502772 -1.119893 -0.500527 0.411745 0.000000 0.000000 -0.000000 -0.507895 0.186501 0.643561 0.000000 0.000000 -0.000000
